<svg width="12" height="13" viewBox="0 0 12 13" fill="none" xmlns="http://www.w3.org/2000/svg">
<g id="email 1">
<g id="Group">
<g id="Group_2">
<path id="Vector" d="M10.9453 1.16577H1.05469C0.473859 1.16577 0 1.63912 0 2.22046V9.25171C0 9.83108 0.47175 10.3064 1.05469 10.3064H10.9453C11.5247 10.3064 12 9.83465 12 9.25171V2.22046C12 1.64108 11.5282 1.16577 10.9453 1.16577ZM10.7997 1.8689L6.02236 6.64623L1.20373 1.8689H10.7997ZM0.703125 9.10612V2.3627L4.08935 5.71989L0.703125 9.10612ZM1.2003 9.60327L4.58866 6.21491L5.77594 7.39199C5.91337 7.52826 6.13516 7.52781 6.27204 7.39091L7.42969 6.23326L10.7997 9.60327H1.2003ZM11.2969 9.10609L7.92687 5.73608L11.2969 2.36605V9.10609Z" fill="#F6762C"/>
</g>
</g>
</g>
</svg>
