<svg width="12" height="13" viewBox="0 0 12 13" fill="none" xmlns="http://www.w3.org/2000/svg">
<g id="global 1" clip-path="url(#clip0_1_58)">
<path id="Vector" d="M6 0.165771C2.69156 0.165771 0 2.85733 0 6.16577C0 9.47421 2.69156 12.1658 6 12.1658C9.30844 12.1658 12 9.47421 12 6.16577C12 2.85733 9.30844 0.165771 6 0.165771ZM5.64844 3.11084C5.11359 3.08786 4.58414 3.0127 4.07858 2.89047C4.15933 2.69913 4.24695 2.51538 4.34143 2.34125C4.72906 1.62695 5.20496 1.1257 5.64844 0.944153V3.11084ZM5.64844 3.81451V5.81421H3.45255C3.48349 5.03372 3.61652 4.25891 3.83652 3.55414C4.41953 3.70099 5.03156 3.78989 5.64844 3.81451ZM5.64844 6.51733V8.51703C5.03156 8.54166 4.41953 8.63055 3.83652 8.7774C3.61652 8.07263 3.48349 7.29782 3.45255 6.51733H5.64844ZM5.64844 9.2207V11.3874C5.20496 11.2058 4.72906 10.7046 4.34143 9.9903C4.24695 9.81616 4.15933 9.63242 4.07858 9.44107C4.58414 9.31885 5.11349 9.24368 5.64844 9.2207ZM6.35156 9.2207C6.88641 9.24368 7.41586 9.31885 7.92142 9.44107C7.84067 9.63242 7.75305 9.81616 7.65857 9.9903C7.27094 10.7046 6.79504 11.2058 6.35156 11.3874V9.2207ZM6.35156 8.51703V6.51733H8.54745C8.51651 7.29782 8.38348 8.07263 8.16348 8.7774C7.58047 8.63055 6.96844 8.54166 6.35156 8.51703ZM6.35156 5.81421V3.81451C6.96844 3.78989 7.58047 3.70099 8.16348 3.55414C8.38348 4.25891 8.51651 5.03372 8.54745 5.81421H6.35156ZM6.35156 3.11084V0.944153C6.79504 1.1257 7.27094 1.62695 7.65857 2.34125C7.75305 2.51538 7.84067 2.69913 7.92142 2.89047C7.41586 3.0127 6.88641 3.08786 6.35156 3.11084ZM8.27655 2.00589C8.10049 1.68143 7.90924 1.39542 7.70764 1.15143C8.41058 1.39148 9.04733 1.77554 9.58282 2.2681C9.2774 2.4317 8.94827 2.57379 8.60202 2.69254C8.50378 2.45395 8.3952 2.22443 8.27655 2.00589ZM3.72345 2.00589C3.6048 2.22443 3.49622 2.45395 3.39798 2.69254C3.05173 2.57379 2.7226 2.43161 2.41718 2.2681C2.95267 1.77554 3.58942 1.39148 4.29236 1.15143C4.09076 1.39542 3.8996 1.68134 3.72345 2.00589ZM3.16013 3.35336C2.92017 4.12103 2.77908 4.95792 2.74869 5.81421H0.715118C0.790375 4.67154 1.22919 3.62656 1.9173 2.79471C2.29916 3.0137 2.71738 3.20102 3.16013 3.35336ZM2.74869 6.51733C2.77908 7.37372 2.92017 8.21051 3.16013 8.97818C2.71738 9.13052 2.29916 9.31784 1.9173 9.53683C1.22919 8.70499 0.790375 7.66 0.715118 6.51733H2.74869ZM3.39798 9.63901C3.49622 9.87759 3.6048 10.1071 3.72345 10.3257C3.8996 10.6501 4.09076 10.9361 4.29236 11.1801C3.58942 10.9401 2.95267 10.556 2.41727 10.0634C2.7225 9.89993 3.05173 9.75775 3.39798 9.63901ZM8.27655 10.3257C8.3952 10.1071 8.50378 9.87759 8.60202 9.63901C8.94827 9.75775 9.2774 9.89993 9.58282 10.0634C9.04733 10.556 8.41058 10.9401 7.70764 11.1801C7.90924 10.9361 8.1004 10.6502 8.27655 10.3257ZM8.83987 8.97818C9.07983 8.21051 9.22092 7.37363 9.25131 6.51733H11.2849C11.2096 7.66 10.7708 8.70499 10.0827 9.53683C9.70084 9.31784 9.28262 9.13052 8.83987 8.97818ZM9.25131 5.81421C9.22092 4.95782 9.07983 4.12103 8.83987 3.35336C9.28262 3.20102 9.70084 3.0137 10.0827 2.79471C10.7708 3.62656 11.2096 4.67154 11.2849 5.81421H9.25131Z" fill="#F6762C"/>
</g>
<defs>
<clipPath id="clip0_1_58">
<rect width="12" height="12" fill="white" transform="translate(0 0.165771)"/>
</clipPath>
</defs>
</svg>
