<svg width="47" height="47" viewBox="0 0 47 47" fill="none" xmlns="http://www.w3.org/2000/svg">
<g id="Group 75">
<circle id="Ellipse 15" opacity="0.1" cx="25.5" cy="22.4763" r="21.5" fill="#F6762C"/>
<g id="Group">
<g id="Group_2">
<path id="Vector" d="M12.8079 15.6691H4.26931C3.08325 15.6691 2.07531 16.0842 1.24501 16.9142C0.415108 17.7443 0 18.7522 0 19.9384V28.4767C0 29.6627 0.414874 30.6705 1.24501 31.5005C2.07523 32.3304 3.08348 32.7457 4.26931 32.7457H9.25006C9.84281 32.7457 10.3469 32.9533 10.762 33.3683C11.1772 33.783 11.3846 34.2873 11.3846 34.8805V35.5916C11.3846 37.163 10.8286 38.5041 9.71696 39.6161C8.6052 40.7276 7.26377 41.2835 5.6922 41.2835H4.26931C3.88364 41.2835 3.55023 41.4247 3.26845 41.7062C2.98691 41.9876 2.84602 42.3213 2.84602 42.7067V45.5532C2.84602 45.938 2.98691 46.2723 3.26845 46.5538C3.55046 46.8352 3.88356 46.9765 4.26931 46.9765H5.69228C7.2341 46.9765 8.70536 46.6759 10.1063 46.0757C11.5071 45.4755 12.7189 44.6636 13.7418 43.6407C14.7645 42.6178 15.5761 41.4062 16.1764 40.0053C16.7767 38.6045 17.0769 37.1333 17.0769 35.5917V19.9381C17.0769 18.7519 16.6618 17.7441 15.8318 16.9141C15.0018 16.0841 13.9937 15.6691 12.8079 15.6691Z" fill="#F6762C"/>
<path id="Vector_2" d="M35.7546 16.914C34.9247 16.0841 33.9167 15.6689 32.7306 15.6689H24.1923C23.0062 15.6689 21.9983 16.0841 21.1683 16.914C20.3384 17.7443 19.9235 18.7521 19.9235 19.9383V28.4766C19.9235 29.6626 20.3384 30.6704 21.1683 31.5004C21.9983 32.3303 23.0063 32.7455 24.1923 32.7455H29.1731C29.7658 32.7455 30.2703 32.9532 30.6854 33.3681C31.1 33.7831 31.3079 34.2871 31.3079 34.8804V35.5915C31.3079 37.1629 30.7519 38.504 29.64 39.616C28.5284 40.7275 27.1872 41.2834 25.6155 41.2834H24.1923C23.8069 41.2834 23.4732 41.4246 23.1918 41.706C22.9101 41.9875 22.769 42.3211 22.769 42.7066V45.5531C22.769 45.9379 22.9101 46.2722 23.1918 46.5537C23.4731 46.8351 23.8069 46.9764 24.1923 46.9764H25.6155C27.1571 46.9764 28.6283 46.6757 30.0294 46.0756C31.43 45.4753 32.6416 44.6635 33.6646 43.6406C34.6874 42.6176 35.4996 41.4058 36.0995 40.0052C36.6997 38.6046 37.0001 37.1332 37.0001 35.5916V19.9379C36.9998 18.7518 36.5851 17.7439 35.7546 16.914Z" fill="#F6762C"/>
</g>
</g>
</g>
</svg>
